<svg xmlns="http://www.w3.org/2000/svg" width="720" height="480" viewBox="0 0 720 480">
  <title>Illustrated Rainbow Preschool centre tile — Manpada</title>
  <defs>
    <linearGradient id="bg" x1="0" y1="0" x2="1" y2="1">
      <stop stop-color="#e9f7f3"/>
      <stop offset="1" stop-color="#e8efff"/>
    </linearGradient>
  </defs>
  <rect width="720" height="480" rx="28" fill="url(#bg)"/>
  <circle cx="620" cy="89" r="104" fill="#9ccdc2" opacity=".45"/>
  <path d="M0 349c104-44 179 22 285-5 127-33 241-63 435 13v123H0z" fill="#beddd3" opacity=".65"/>
  <path d="M101 301V156h191v145" fill="#fff" stroke="#547c83" stroke-width="9"/>
  <path d="M88 160h217l-18-43H106z" fill="#ef8c72"/>
  <path d="M125 193h48v53h-48zm92 0h48v53h-48z" fill="#a8d9cd"/>
  <path d="M357 151h204" stroke="#547c83" stroke-width="12" stroke-linecap="round"/>
  <path d="M358 190h151M358 229h194" stroke="#85b8ad" stroke-width="10" stroke-linecap="round"/>
  <circle cx="555" cy="293" r="33" fill="#f2b94b"/>
  <circle cx="610" cy="293" r="33" fill="#ef8c72"/>
  <text x="72" y="378" fill="#27364b" font-family="Arial, sans-serif" font-size="42" font-weight="700">Manpada</text>
  <text x="74" y="422" fill="#586577" font-family="Arial, sans-serif" font-size="21" font-weight="600" letter-spacing="1.4">AGGARWAL ARCADE · KHEWRA CIRCLE</text>
</svg>